# xmcd CD database file
#
# Track frame offsets:
#	150
#	11842
#	26805
#	44957
#	65877
#	84712
#
# Disc length: 1224 seconds
#
# Revision: 0
# Processed by: cddbd v1.5.1PL2 Copyright (c) Steve Scherf et al.
# Submitted via: CDex 1.51
#
DISCID=5904c606
DTITLE=Yesterdays New Quintet - Angles Without Edges Bonus Disc
DYEAR=2001
DGENRE=Jazz
TTITLE0=Ella's Theme
TTITLE1=ReRev
TTITLE2=Herbal Scent
TTITLE3=Sunrays
TTITLE4=Funshine
TTITLE5=The Science
EXTD=YEAR: 2001
EXTT0=
EXTT1=
EXTT2=
EXTT3=
EXTT4=
EXTT5=
PLAYORDER=
